<?xml version="1.0" standalone="no"?>
<!DOCTYPE svg PUBLIC "-//W3C//DTD SVG 20010904//EN"
 "http://www.w3.org/TR/2001/REC-SVG-20010904/DTD/svg10.dtd">
<svg version="1.0" xmlns="http://www.w3.org/2000/svg"
 width="450.000000pt" height="450.000000pt" viewBox="0 0 450.000000 450.000000"
 preserveAspectRatio="xMidYMid meet">
<metadata>
Created by potrace 1.14, written by Peter Selinger 2001-2017
</metadata>
<g transform="translate(0.000000,450.000000) scale(0.100000,-0.100000)"
fill="#000000" stroke="none">
<path d="M1226 4486 c-46 -17 -61 -30 -52 -45 9 -15 39 -14 54 1 6 6 15 8 19
5 4 -4 -1 -15 -10 -24 -12 -12 -36 -17 -97 -17 -44 -1 -80 -5 -80 -9 0 -4 15
-22 33 -40 18 -18 28 -29 23 -24 -16 11 -28 8 -21 -5 4 -7 -18 13 -49 46 -49
52 -59 58 -85 53 -24 -5 -31 -2 -36 13 -7 22 -13 24 -34 11 -9 -6 -22 -6 -33
0 -15 8 -18 6 -18 -13 0 -29 -23 -95 -38 -110 -7 -7 -12 -22 -12 -33 0 -30 25
-112 44 -139 l15 -23 93 32 c150 52 153 53 190 11 17 -20 37 -36 43 -36 6 0
17 -34 24 -75 18 -107 48 -190 129 -351 61 -122 68 -141 50 -136 -17 4 -20 2
-15 -13 4 -10 12 -37 18 -61 6 -23 20 -50 30 -60 39 -35 12 -114 -39 -114 -15
0 -72 16 -127 36 -222 78 -314 50 -331 -100 -8 -66 3 -71 61 -32 58 40 158 51
300 34 79 -9 136 -11 165 -5 69 13 86 11 120 -13 60 -42 82 -126 59 -215 -6
-22 -17 -69 -25 -105 -8 -36 -33 -99 -55 -140 -36 -66 -40 -79 -34 -120 4 -25
14 -60 22 -78 17 -36 11 -138 -10 -174 -9 -16 -9 -22 0 -25 7 -2 17 -20 23
-38 9 -28 9 -39 -4 -57 -9 -12 -16 -30 -16 -40 0 -10 -3 -18 -8 -18 -4 0 -16
-16 -27 -35 -25 -48 -157 -162 -220 -191 -27 -13 -67 -24 -88 -24 -23 0 -103
-25 -200 -64 -89 -35 -191 -74 -226 -86 -35 -13 -83 -38 -105 -55 -23 -17 -48
-34 -57 -37 -22 -8 -71 15 -115 55 l-39 35 3 -74 c10 -208 -113 -664 -178
-664 -22 0 -95 -78 -117 -125 -12 -25 -20 -32 -28 -25 -12 10 -29 -25 -49 -95
-6 -22 32 -108 49 -109 12 -1 32 58 43 129 7 44 67 163 77 153 2 -2 -1 -85 -5
-186 -7 -149 -12 -189 -27 -212 -10 -16 -55 -83 -100 -149 -46 -65 -87 -131
-93 -145 -12 -33 5 -66 35 -66 29 0 131 111 209 229 37 55 72 101 77 101 5 0
21 -18 35 -40 26 -40 47 -50 59 -29 5 7 13 5 25 -6 9 -8 55 -34 101 -57 83
-42 85 -42 199 -42 l115 -1 16 50 c10 32 23 54 37 60 14 6 24 22 28 43 10 50
-1 144 -21 181 -9 18 -14 35 -11 38 2 3 30 -4 61 -16 37 -14 79 -21 126 -21
97 0 98 4 23 139 -48 85 -114 253 -124 314 -12 74 -13 354 -2 361 12 7 62 -20
96 -52 15 -15 42 -51 59 -81 17 -30 39 -56 49 -59 10 -2 18 -8 18 -13 0 -5 9
-9 21 -9 27 0 59 -18 59 -33 0 -29 63 -174 84 -192 20 -18 40 -51 39 -65 -1
-3 -4 -16 -8 -29 -6 -21 -4 -23 13 -19 16 5 21 0 25 -26 3 -20 0 -34 -9 -39
-8 -4 -14 -20 -14 -34 0 -15 -3 -23 -6 -20 -4 3 -15 2 -25 -3 -12 -7 -19 -6
-22 3 -3 9 -11 8 -33 -5 -16 -9 -46 -19 -67 -23 -25 -5 -37 -12 -33 -20 2 -7
-4 -21 -15 -31 -10 -9 -19 -26 -19 -37 0 -19 5 -20 98 -14 79 5 295 38 400 62
l24 6 -21 -29 c-14 -20 -23 -53 -27 -99 l-7 -70 44 -7 c24 -3 145 -9 269 -13
l225 -6 81 -58 c44 -32 93 -63 108 -70 26 -12 29 -11 52 19 19 24 34 32 57 32
18 1 42 6 54 13 21 12 31 23 103 123 38 53 79 95 159 162 50 43 63 66 39 74
-24 8 20 56 84 94 35 20 90 58 123 84 100 79 183 130 289 180 151 72 204 84
381 85 186 0 269 -21 341 -87 l44 -41 40 18 c22 10 47 26 56 36 15 17 15 18
-12 24 -91 18 -102 33 -43 59 49 22 59 42 30 62 -25 18 -27 40 -4 52 21 12 10
42 -16 42 -12 0 -51 -11 -87 -25 -80 -30 -256 -67 -278 -59 -26 10 -19 34 15
52 46 25 75 49 67 57 -3 4 -17 1 -30 -6 -12 -7 -51 -16 -85 -20 -46 -5 -70
-13 -93 -33 -27 -23 -41 -26 -101 -26 -65 0 -69 2 -83 28 -29 56 -95 307 -83
318 2 2 46 -46 98 -108 142 -169 147 -174 155 -165 5 5 0 23 -10 40 -58 97
-97 182 -112 243 -16 66 -17 103 -13 379 1 66 -9 141 -35 280 -48 252 -79 439
-111 673 -45 326 -103 518 -130 431 -4 -13 -1 -25 8 -32 17 -14 49 -142 72
-289 28 -179 14 -176 -38 8 -55 197 -108 311 -209 452 -74 103 -101 150 -111
193 -9 36 -112 129 -200 180 -103 61 -267 137 -330 153 -30 8 -77 26 -105 40
-64 32 -283 95 -384 109 -61 9 -50 -18 28 -70 13 -9 14 -12 4 -10 -8 1 -14 -4
-12 -12 2 -11 -2 -11 -20 2 -49 35 -125 76 -168 90 -25 8 -92 34 -150 58 -104
42 -107 42 -245 46 -104 2 -150 0 -179 -11z m2203 -2516 c0 -10 -3 -8 -9 5
-12 27 -12 43 0 25 5 -8 9 -22 9 -30z m80 -142 c24 -70 21 -92 -2 -26 -22 59
-29 88 -24 88 3 0 15 -28 26 -62z m-2702 -260 c-3 -7 -5 -2 -5 12 0 14 2 19 5
13 2 -7 2 -19 0 -25z m3 -48 c0 -5 -4 -10 -10 -10 -5 0 -10 5 -10 10 0 6 5 10
10 10 6 0 10 -4 10 -10z m-280 -270 c-6 -11 -15 -20 -21 -20 -21 0 -21 34 2
79 l24 46 3 -42 c2 -23 -2 -51 -8 -63z m-199 -253 c-8 -8 -11 -5 -11 9 0 27
14 41 18 19 2 -9 -1 -22 -7 -28z"/>
<path d="M3046 3815 c7 -18 44 -40 44 -27 0 10 -33 42 -43 42 -3 0 -4 -7 -1
-15z"/>
<path d="M929 3561 c-63 -20 -119 -63 -119 -93 0 -21 34 -24 87 -9 37 11 123
79 123 98 0 14 -49 16 -91 4z"/>
<path d="M353 3423 c-59 -12 4 -46 76 -41 46 3 66 22 34 32 -32 9 -88 14 -110
9z"/>
<path d="M288 3234 c-34 -18 -48 -43 -48 -86 0 -46 13 -64 30 -43 9 11 16 12
25 5 19 -15 85 14 92 40 7 25 21 25 53 0 14 -11 28 -20 33 -20 15 0 6 38 -15
65 -40 51 -116 69 -170 39z"/>
<path d="M760 2853 c-20 -11 -49 -13 -143 -8 l-118 6 -44 -40 c-25 -23 -51
-41 -60 -41 -24 0 -18 -38 9 -55 17 -11 35 -14 59 -10 21 4 37 3 41 -4 10 -16
39 -14 137 10 118 29 193 92 173 144 -7 18 -21 18 -54 -2z"/>
<path d="M475 2536 c-98 -47 -120 -74 -116 -143 1 -22 46 -83 62 -83 5 0 9 21
9 46 0 92 32 112 191 119 95 4 116 2 131 -12 16 -14 18 -14 24 1 10 26 42 19
59 -14 9 -16 18 -30 22 -30 13 0 119 53 136 68 9 8 17 27 17 42 0 24 -5 28
-37 34 -21 3 -126 6 -233 6 l-196 0 -69 -34z"/>
<path d="M3535 1246 c-27 -7 -70 -23 -95 -35 -74 -38 -280 -214 -267 -228 4
-3 30 12 59 34 112 86 233 140 385 173 105 23 136 35 130 53 -5 17 -150 19
-212 3z"/>
<path d="M4420 1198 c-25 -5 -79 -7 -120 -4 -42 3 -81 1 -89 -3 -10 -6 5 -29
59 -90 93 -106 108 -115 167 -107 26 3 49 8 51 11 3 2 -6 14 -19 25 l-24 20
28 21 c34 26 34 44 2 65 l-26 17 21 22 c35 37 29 40 -50 23z"/>
<path d="M3691 886 c-7 -9 -22 -16 -32 -16 -22 0 -25 -13 -6 -29 8 -6 64 -24
126 -40 120 -31 143 -44 246 -135 52 -46 72 -73 104 -139 51 -108 61 -117 94
-77 32 37 37 38 37 0 0 -19 10 -40 29 -58 15 -17 34 -52 41 -78 11 -39 15 -44
17 -24 3 24 -30 148 -58 216 -7 19 -9 41 -4 60 8 29 8 29 16 -14 10 -51 16
-62 35 -62 19 0 69 79 88 139 25 78 25 83 -9 86 -29 2 -117 34 -359 129 -110
44 -127 48 -235 53 -100 5 -118 4 -130 -11z"/>
<path d="M4050 475 c0 -17 48 -70 56 -62 4 4 -6 22 -24 40 -18 17 -32 27 -32
22z"/>
<path d="M3975 391 c14 -41 127 -264 172 -343 33 -57 53 -62 53 -13 0 45 -45
181 -74 225 -30 45 -145 170 -156 170 -5 0 -3 -17 5 -39z"/>
<path d="M4150 335 c0 -4 14 -38 31 -77 30 -70 59 -179 59 -231 0 -24 2 -26
18 -16 10 6 28 26 41 44 l22 33 -20 51 c-22 58 -103 176 -131 191 -11 6 -20 8
-20 5z"/>
<path d="M3764 200 c-23 -10 -45 -23 -49 -30 -4 -6 6 -28 24 -50 33 -41 39
-65 19 -73 -10 -3 -10 -9 -2 -23 9 -16 25 -20 93 -22 44 -2 81 0 81 3 0 4 -18
37 -39 73 -22 37 -42 78 -46 92 -8 27 -24 50 -34 49 -3 0 -25 -9 -47 -19z"/>
</g>
</svg>
