<svg xmlns="http://www.w3.org/2000/svg" width="450" height="450" viewBox="0 0 450 450">
  <g id="Group_2" data-name="Group 2" transform="translate(0 0)">
    <rect id="Rectangle_7" data-name="Rectangle 7" width="352" height="351" transform="translate(49 51)" fill="#bcd3d2"/>
    <g id="PT" transform="translate(0)" style="isolation: isolate">
      <path id="Path_33" data-name="Path 33" d="M342.981-314.6c-1.2,1.323-2.4,2.4-2.765,2.4s.361-1.082,1.563-2.4,2.4-2.4,2.765-2.4S344.183-315.918,342.981-314.6Z" transform="translate(-198.989 383.886)"/>
      <path id="Path_34" data-name="Path 34" d="M295.162-350.8c-.361.6-.962,1.2-1.322,1.2-.241,0-.481-.6-.481-1.2a1.236,1.236,0,0,1,1.322-1.2C295.283-352,295.523-351.519,295.162-350.8Z" transform="translate(-87.1 376.807)"/>
      <path id="Path_35" data-name="Path 35" d="M179.619-294.939c4.328.962,11.662,4.689,12.864,6.492a6.872,6.872,0,0,1,.962,3.246c0,1.683-.721,1.8-5.771.721-3.126-.721-5.891-1.683-6.252-2.164a44.914,44.914,0,0,0-5.17-4.448c-3.607-2.885-3.967-3.727-2.284-4.088A18.834,18.834,0,0,1,179.619-294.939Z" transform="translate(174.988 388.7)"/>
      <path id="Path_36" data-name="Path 36" d="M152.548-283.043c2.885.842,2.885.962.6,2.044-5.17,2.765-17.673,1.563-12.984-1.082C142.208-283.283,149.783-283.764,152.548-283.043Z" transform="translate(262.772 391.168)"/>
      <path id="Path_37" data-name="Path 37" d="M151.137-267.468c3.607,1.8,5.41,6.492,4.328,11.181-.842,3.246-1.082,3.366-2.525,1.322-.842-1.2-1.8-1.563-2.044-.842-.721,2.4-8.3-.12-9.5-3.126-1.2-3.487-1.683-3.487-5.53-.481-3.727,2.885-4.328,2.525-3.246-1.8C134.185-267.468,144.284-270.954,151.137-267.468Z" transform="translate(270.195 394.201)"/>
      <path id="Path_44" data-name="Path 44" d="M191.186-211.136c10.82,5.17,12.383,6.011,13.946,8.3,3.366,4.689,1.924,10.82-3.366,14.908-1.8,1.322-1.924.962-1.8-4.088.24-4.929-.24-6.011-3.366-8.536-2.284-1.924-4.689-2.765-6.372-2.525a13.4,13.4,0,0,1-6.372-.721c-2.645-1.082-4.088-1.082-5.891.12-1.443.842-2.525.962-3.006.24-1.2-1.924-6.372-1.443-7.574.721-.962,1.8-1.2,1.8-1.8,0-1.322-3.366-5.53-2.284-7.214,1.8-1.443,3.607-1.683,3.727-3.487,1.8a6.666,6.666,0,0,0-3.607-1.924c-.842,0-3.366-1.082-5.53-2.4-2.645-1.683-3.847-3.246-3.847-5.41a9.942,9.942,0,0,1,.24-3.006c.24,0,10.339-.361,22.6-.6C183.732-212.94,187.579-212.819,191.186-211.136Z" transform="translate(207.302 405.89)"/>
      <path id="Path_46" data-name="Path 46" d="M370.981-101.836c7.694,2.645,15.75,8.3,25.728,17.793,9.017,8.656,9.257,10.1.6,2.885-9.017-7.574-23.444-14.187-35.346-16.351-11.3-1.924-15.629-3.487-15.629-5.29C346.334-104.842,364.368-104.12,370.981-101.836Z" transform="translate(-270.999 428.502)"/>
      <path id="Path_47" data-name="Path 47" d="M433.524-98.7a61.41,61.41,0,0,0,12.864.361c5.41-.481,8.175-.24,8.175.6,0,.721-3.847,5.29-8.536,10.219-8.416,9.017-8.536,9.017-14.066,8.536-3.126-.24-5.891-.481-6.252-.481-.361-.12.721-1.2,2.4-2.525,3.126-2.525,3.126-2.645-2.164-5.771-2.044-1.322-.6-4.809,2.525-5.771,2.4-.721,2.4-.842-.842-3.607C424.026-100.387,424.748-100.507,433.524-98.7Z" transform="translate(-425 429.337)"/>
      <path id="Path_57" data-name="Path 57" d="M407.085-372.022c6.58,1.087,11.817,3.5,10.742,5.073-1.074,1.45-6.043,1.45-6.043-.242,0-.6-.671-.846-1.343-.483-1.074.6-1.074,1.329-.134,2.3.806.846,1.209,1.812.806,2.174-.4.242,2.417.6,6.177.6,3.76.121,7.117.483,7.654.846.4.362,1.611,0,2.686-.846,1.746-1.208,1.88-1.087.4,1.208-.806,1.57-2.148,2.778-2.82,2.778s-2.014,1.208-2.82,2.658c-1.611,2.658-1.477,2.658.806.966s2.417-1.57,1.611.6c-.671,1.691,0,1.208,2.283-1.208a25.923,25.923,0,0,0,4.163-5.557c1.074-2.9,6.311-4.711,9.4-3.262,1.343.725,2.014.725,1.611.121a2.746,2.746,0,0,1,.4-2.778c.94-1.329,1.611-1.329,2.954-.242,1.477,1.087,2.417,1.087,3.626-.121,1.477-1.208,1.746-.846,1.208,1.812-.4,1.933-.134,3.382.4,3.382.671,0,1.208,1.329,1.208,3.02a4.767,4.767,0,0,0,2.149,3.986c1.88.966,2.014,1.933.671,7.61-.94,3.624-2.283,7.731-3.223,9.06l-1.611,2.658-9.4-3.382c-15.576-5.557-16.382-5.557-19.6-.6-1.611,2.3-3.357,3.865-4.028,3.5s-1.209-.483-1.343-.242c0,.242-.269,2.778-.671,5.8-1.343,10.388-6.043,23.555-13.428,36.843-3.894,7.369-7.251,13.771-7.251,14.133,0,.483,1.074.483,2.283.121,1.746-.6,2.014-.362,1.074,1.57a36.188,36.188,0,0,0-1.746,6.281c-.269,2.174-1.611,4.469-2.82,5.073-2.551,1.208-2.417,7.61.269,10.63,1.88,2.054,7.788,1.329,15.845-1.933,21.35-8.7,32.361-5.919,33.838,8.456.671,6.4.537,6.885-1.611,5.919a19.5,19.5,0,0,1-4.028-3.02c-.94-.966-5.64-2.416-10.608-3.141-7.385-1.208-11.145-1.208-20.948.362-10.339,1.57-12.622,1.57-17.322.121-4.834-1.57-5.505-1.45-9.131.846a21.75,21.75,0,0,0-5.774,5.677c-2.283,4.228-3.625,13.288-1.88,14.254a2.06,2.06,0,0,1,.4,2.658,2.339,2.339,0,0,0,.537,2.658c.806.362,1.746,2.9,2.014,5.436,1.209,7.489,1.88,9.905,3.626,12.925a19.275,19.275,0,0,1,2.014,4.107c.134.725,1.611,2.778,3.357,4.59,1.278,5.726-1.074,14.935-2.283,14.09-3.606,6.68.671,12,0,13.814a2.452,2.452,0,0,0,.269,2.9c1.746,1.087,2.148,3.745.537,3.745-.671,0-1.343,1.087-1.343,2.3a4.02,4.02,0,0,1-1.343,3.141c-.94.483-.671,1.691.671,3.382a9.885,9.885,0,0,1,2.014,4.711c0,1.208.537,2.174,1.343,2.174a1.536,1.536,0,0,1,1.343,1.57c0,1.57,4.7,7.489,7.922,9.784.94.725,3.625,3.141,6.043,5.436,4.431,4.228,14.9,9.06,17.188,7.852.671-.362,3.76.242,6.848,1.329,9.265,3.5,14.9,5.677,18.8,7.489a118.053,118.053,0,0,0,12.085,4.349c8.862,2.9,14.9,6.04,18.531,9.543,4.163,4.107,10.608,2.174,16.516-5.073l2.417-3.02-.806,4.711c-1.88,11.6,7.117,55.566,12.622,62.573,1.477,1.812,2.686,4.107,2.686,5.194,0,.966,1.208,1.812,2.551,1.812,3.223,0,9,6.161,11.817,12.321,1.477,3.382,2.417,4.349,3.223,3.262,1.208-1.812.94-2.054,3.894,6.523,1.343,3.745,1.208,5.315-.537,8.7-1.209,2.3-2.686,4.349-3.357,4.711-1.208.725-4.163-9.785-4.163-14.858,0-1.812-2.148-6.161-4.834-9.785l-4.7-6.644.94,6.04c.671,3.261,1.208,12.442,1.208,20.173.134,13.408.4,14.375,4.028,19.327,6.848,9.181,17.053,24.522,17.322,25.73a8.985,8.985,0,0,0,1.208,2.658c.671.966.537,1.57-.269,1.57a1.05,1.05,0,0,0-1.074,1.45c.134.725-.671,1.57-1.88,1.812-3.223.725-13.965-10.872-21.485-22.831-3.357-5.436-6.848-10.147-7.654-10.388s-2.551,1.57-3.894,3.865c-2.283,4.469-5.774,5.919-5.774,2.416,0-1.45-.806-1.087-2.82,1.208-1.611,1.812-3.223,3.02-3.491,2.658-.4-.362-2.686.6-4.968,2.174a39.646,39.646,0,0,1-9.265,4.349c-5.908,1.691-21.619,2.3-23.23.846-.537-.483-1.343-3.141-1.746-6.04-.671-3.865-1.477-5.194-3.491-5.436-2.417-.242-2.82-1.329-3.088-8.214-.269-5.677.4-9.3,2.283-13.288l2.686-5.436-2.954.846a51.917,51.917,0,0,0-6.58,2.416C433.672.635,428.7,1.36,424.541,1.36c-6.445,0-7.385-.362-7.385-2.3A4.02,4.02,0,0,1,418.5-4.076a1.394,1.394,0,0,0,.671-1.933c-.537-.6-.269-1.087.537-1.087,1.209,0,3.223-3.865,3.491-6.4a3.192,3.192,0,0,1,1.343-1.812,6.2,6.2,0,0,0,1.746-3.141,77.868,77.868,0,0,1,3.76-9.06,64.1,64.1,0,0,0,4.7-12.8c1.88-7.973,2.551-39.138.94-39.984-3.894-2.174-14.5,7.127-17.859,15.824-.94,2.3-2.283,3.5-3.76,3.5-1.208-.121-1.88.242-1.477.846s-.806,1.087-2.551,1.087c-3.357,0-7.385,3.02-5.908,4.469.537.362,0,2.174-1.074,3.866a55.652,55.652,0,0,0-3.491,8.818c-1.208,3.745-2.551,5.8-4.3,6.281-1.343.242-2.148,1.087-1.746,1.812.537.6-.134,1.691-1.343,2.3-1.477.725-1.746,1.329-.671,1.933a4.469,4.469,0,0,1,1.477,3.5c0,1.933-.4,2.174-1.209.966s-1.343-1.208-2.148-.121a1.686,1.686,0,0,0-.134,2.054c.4.483-.269,1.812-1.477,3.02-1.88,1.933-1.88,2.174-.134,1.57,1.88-.725,4.431,3.02,3.894,5.8-.134.6.4.725,1.074.362a1.768,1.768,0,0,1,2.283.6c.671.966,1.208.846,2.014-.242.806-1.329,1.611-1.208,3.626.483a11.579,11.579,0,0,0,6.177,2.054c2.82,0,3.626.483,2.954,1.812a1.948,1.948,0,0,0,1.074,2.537,4.783,4.783,0,0,1,2.551,3.02c.671,2.054,0,2.3-5.505,2.3-7.117,0-15.174-1.087-33.838-4.711-6.982-1.329-12.891-2.3-13.025-2.054-.269.242.806,1.691,2.283,3.382,1.343,1.691,2.283,3.382,1.746,3.745-.4.483,0,2.416.94,4.349,1.611,3.745.671,9.181-1.477,7.973-.671-.362-2.417-.121-3.894.6-1.746.846-11.279,1.329-24.976,1.329l-22.156.121-9.8,7.127c-5.505,3.865-10.608,7.127-11.414,7.127s-2.148-1.329-2.954-2.9c-.94-1.691-2.551-2.9-3.76-2.778-5.1.242-9.265-1.691-10.877-5.194a15,15,0,0,0-3.894-5.194c-1.209-.846-3.76-4.107-5.64-7.489a20.349,20.349,0,0,0-8.46-8.456c-4.968-2.416-11.951-10.268-9-10.268a1.547,1.547,0,0,0,1.477-1.57c0-2.054-8.057-9.422-9.4-8.7-.537.242-5.505-3.02-10.877-7.369-24.976-19.811-45.252-28.266-68.348-28.266-16.382,0-28.87,3.262-34.51,9.06l-4.3,4.469-4.968-2.3c-6.58-3.02-7.385-5.194-1.88-5.194,2.283,0,5.1-.846,6.177-1.812,1.746-1.57,1.477-2.054-2.686-3.865-5.774-2.416-6.982-4.711-3.491-6.4,3.223-1.57,3.491-4.349.671-5.315s-2.551-2.778.537-3.745c1.343-.362,5.371.725,9.4,2.416,7.251,3.382,24.842,7.127,27.93,6.161,3.223-1.208,1.88-5.194-2.283-6.765-4.565-1.691-8.862-5.436-4.565-4.107A25.133,25.133,0,0,1,150.88-74.5c.94.6,3.76.966,6.311.846,3.626-.362,5.371.242,7.788,2.658,2.551,2.658,4.3,3.141,10.608,3.261,6.848.121,7.654-.121,9.131-3.02,2.686-5.194,8.191-25.73,8.191-30.32v-4.349l-2.283,2.9c-1.208,1.691-5.1,6.161-8.46,9.905S174.513-83.56,172.5-80.9c-4.431,5.8-7.922,6.765-3.894.966,6.445-9.3,9.4-15.462,11.414-24.159,2.417-10.63,2.954-29.837.671-29.837s.537-20.415,7.251-53.15c1.88-8.939,4.431-24.159,5.505-33.823q4.431-37.688,9.265-52.909c2.686-8.939,4.163-10.509,5.371-6.281.4,1.329.134,2.174-.537,1.812-.537-.362-1.477.483-1.746,2.053-.4,1.57-1.611,6.281-2.686,10.63-2.686,10.63-5.1,27.662-4.565,32.736.269,3.382.806,2.416,2.954-5.557,5.505-21.019,9.265-31.89,13.831-39.863,1.209-2.054,3.089-5.315,4.163-7.248a107.732,107.732,0,0,1,7.654-10.872c4.968-6.523,9.265-14.012,8.862-15.7-.537-2.537,6.714-10.509,14.5-15.824,10.608-7.127,38.4-20.294,40.552-19.086.806.362,2.417-.121,3.625-.966,3.223-2.537,14.1-7.006,16.919-7.006a18.785,18.785,0,0,0,6.311-1.933c2.283-.966,4.431-1.57,4.968-1.208.4.362,1.611,0,2.686-.725,1.074-.846,3.76-1.57,6.177-1.691a30.2,30.2,0,0,0,7.117-.966c5.371-1.57,3.626,2.537-2.283,5.436-2.954,1.57-5.371,3.262-5.371,3.986s.671.6,1.611-.242c2.014-1.812,4.3-1.933,3.089-.242-1.343,2.053.94,1.329,3.894-1.087,3.357-2.778,15.039-8.7,16.516-8.335a88.215,88.215,0,0,0,11.817-4.59c5.908-2.537,12.219-4.832,14.1-4.953s6.982-.483,11.414-.725A68.657,68.657,0,0,1,407.085-372.022ZM328.8-354.386c.4.362,1.208-.242,1.611-1.449.806-1.691.671-1.812-.671-.725C328.8-355.715,328.4-354.748,328.8-354.386ZM184.853-136.59c0,1.812.269,1.812,1.343.242,1.746-2.416,1.746-3.986,0-3.02A3.23,3.23,0,0,0,184.853-136.59Zm8.46,7.731c.4.846.671.242.671-1.45s-.269-2.3-.671-1.57A5.756,5.756,0,0,0,193.312-128.859Zm-1.611,9.181c0,2.9.134,3.02,1.208.846,1.611-3.382,1.611-5.677,0-4.832C192.1-123.3,191.567-121.49,191.7-119.678ZM180.824-97.21c0,.725.671.6,1.477-.121,1.611-1.45,5.237-13.167,5.1-16.67C187.27-116.175,180.959-99.747,180.824-97.21ZM453.411-79.936c0,2.3.4,2.9,1.343,2.054a2.889,2.889,0,0,0,.537-3.262C454.082-84.043,453.411-83.681,453.411-79.936Zm0,5.8c0,.966.537,1.812,1.343,1.812.671,0,1.343-.846,1.343-1.812s-.671-1.812-1.343-1.812C453.948-75.95,453.411-75.1,453.411-74.138Zm26.722,21.5c.537,7.248,4.3,10.872,6.177,5.677.806-2.3-4.565-12.563-5.908-11.355C480-57.951,479.864-55.415,480.132-52.636Zm20.276,27.662a7.686,7.686,0,0,0,1.343,3.382c1.074,1.45,1.343,1.087,1.343-1.57,0-1.812-.671-3.262-1.343-3.262A1.4,1.4,0,0,0,500.409-24.974Z" transform="translate(-84.811 372.474)"/>
      <path id="Path_48" data-name="Path 48" d="M451.9-74.251c1.2.361,2.164,1.082,2.164,1.683s1.2,1.082,2.525,1.082c3.607,0,.842,3.126-3.487,3.967-1.8.361-6.252,1.443-9.858,2.4-3.607,1.082-7.935,2.164-9.618,2.645-1.683.361-7.454,4.809-12.864,9.979-7.815,7.574-10.1,10.46-11.181,14.788-.842,2.885-2.525,6.492-3.847,7.935l-2.4,2.525-3.366-3.727c-2.885-3.246-3.486-3.487-3.366-1.443.24,3.847-1.443,9.137-2.645,8.416-1.443-.842-3.487,3.126-4.809,9.378-.721,4.208-.962,4.448-1.082,1.443-.12-4.689,5.29-22.963,6.733-22.6.6.12.6-2.4-.12-6.011l-1.323-6.252-.6,6.011c-.361,3.246-1.082,6.733-1.683,7.574-2.284,3.727-9.858-8.055-12.143-18.755-.721-3.727-.6-3.967,1.443-2.765,1.683.842,2.765.842,3.847-.24.721-.721,3.607-2.044,6.492-2.765,2.765-.842,11.542-4.088,19.477-7.334s16.351-6.372,18.635-6.853C433.862-74.251,449.01-74.973,451.9-74.251Z" transform="translate(-372.799 434.924)"/>
      <path id="Path_49" data-name="Path 49" d="M417.283-38.126c-1.563,3.006-5.049,6.011-5.049,4.448,0-.6,1.443-2.4,3.126-4.088C418.244-40.29,418.485-40.41,417.283-38.126Z" transform="translate(-373.051 441.96)"/>
      <path id="Path_50" data-name="Path 50" d="M428.748-35.9c-.12,2.765-6.973,17.072-10.82,22.723a58.033,58.033,0,0,0-4.208,9.257c-1.322,3.487-3.006,6.372-3.847,6.372s-1.563,1.082-1.563,2.4a2.195,2.195,0,0,1-1.924,2.4c-1.563,0-1.683-.962-.962-5.53a37.568,37.568,0,0,1,2.4-8.776,13.215,13.215,0,0,0,1.683-4.929c0-3.006,4.689-9.738,12.143-17.192C425.5-33.133,428.748-36.138,428.748-35.9Z" transform="translate(-375.14 442.737)"/>
      <path id="Path_51" data-name="Path 51" d="M437.557-28.462c-.24.6-1.924,4.328-3.727,8.175-3.727,7.935-5.53,15.148-5.651,21.761,0,4.088-.241,4.448-1.8,3.126-2.4-1.924-7.574-9.137-5.891-8.055.842.481,1.322-.721,1.322-2.765,0-3.727,6.733-14.427,12.624-20.078C436.475-28.1,437.917-29.183,437.557-28.462Z" transform="translate(-402.222 444.198)"/>
      <path id="Path_52" data-name="Path 52" d="M396.154-18.21c0,.721,1.563,1.683,3.487,2.164,4.208.842,7.574,4.328,5.17,5.049a2.763,2.763,0,0,0-1.443,2.164,3.053,3.053,0,0,1-1.8,2.284c-.962.361-1.8,2.044-1.8,3.727,0,1.8.481,2.885,1.2,2.4.6-.361,1.2-.12,1.2.481a1.334,1.334,0,0,1-1.322,1.322c-.6,0-.842.481-.481,1.2.481.721-2.4,1.2-7.694,1.2-4.689,0-8.536-.24-8.536-.481,0-.842,5.17-9.618,6.132-10.339a13.464,13.464,0,0,0,1.563-4.088C392.788-14.964,396.154-20.494,396.154-18.21Z" transform="translate(-326.916 446.209)"/>
      <path id="Path_56" data-name="Path 56" d="M147.487-235.68c1.683,1.683,9.5,1.924,19.236.721,7.334-.962,7.454-.962,11.662,3.366,2.284,2.284,5.049,4.208,6.132,4.208,2.765,0,2.164,3.366-1.082,5.41-2.4,1.563-3.366,1.683-5.41.481-2.044-1.322-2.765-1.2-4.689.481-2.044,1.924-2.765,1.924-7.574.24a93.456,93.456,0,0,0-9.979-2.525c-5.53-.842-12.744-7.214-12.744-11.181C143.038-237.243,145.323-237.844,147.487-235.68Z" transform="translate(225.665 400.634)"/>
    </g>
  </g>
</svg>
