<svg xmlns="http://www.w3.org/2000/svg" width="948.502" height="290.462" viewBox="0 0 948.502 290.462">
  <g id="logo" transform="translate(-1181.012 -142.606)" opacity="0.95">
    <path id="Path_9" data-name="Path 9" d="M-190.5,39.016h21.337V2.189h17.86c21.811,0,37.617-13.909,37.617-33.823,0-20.073-15.805-33.665-37.617-33.665h-39.2Zm21.337-55.476v-30.03h17.86c9.641,0,15.805,6.006,15.805,14.857,0,9.009-5.848,15.173-15.805,15.173ZM-93.14,39.016H-71.8V-6.029h46.151V39.016H-4.314V-65.3H-25.651v39.987H-71.8V-65.3H-93.14ZM17.023-13.142C16.549,16.73,42.312,41.545,72.342,40.912c30.03.632,56.109-24.182,55.635-54.054.474-29.872-25.6-54.686-55.635-54.054C42.312-67.828,16.549-43.014,17.023-13.142Zm88.984,0c0,20.073-14.383,34.3-33.507,34.3-19.282,0-33.507-14.225-33.507-34.3s14.225-34.3,33.507-34.3C91.624-47.439,106.007-32.9,106.007-13.142Zm43.464,52.157h72.072V19.733H170.808V-6.661h35.878V-24.838H170.808V-46.017h48.838V-65.3H149.471ZM324.277,8.354c0-12.644-6.954-21.5-18.492-25.763,5.216-4.9,7.745-11.222,7.745-18.808,0-17.07-13.751-29.082-33.033-29.082H243.513V39.016H289.98C310.053,39.016,324.277,26.372,324.277,8.354ZM278.758-46.965c8.693,0,13.593,4.425,13.593,11.854S287.451-23.1,278.758-23.1h-14.7V-46.965Zm24.5,54.528c0,8.219-5.532,13.118-14.857,13.118h-24.34V-5.555H288.4C297.725-5.555,303.256-.5,303.256,7.563ZM345.14,39.016h72.072V19.733H366.478V-6.661h35.878V-24.838H366.478V-46.017h48.838V-65.3H345.14Z" transform="translate(1373 210.108)" fill="#fff"/>
    <path id="Path_8" data-name="Path 8" d="M-274.176,15.937h4.149V-7.679H-256.3c9.893,0,15.957-6.143,15.957-14.6,0-8.3-6.064-14.441-15.957-14.441h-17.872Zm4.149-27.366V-32.971h13.564c7.579,0,11.808,4.388,11.808,10.771s-4.229,10.771-11.808,10.771Zm42.605,27.366h33.909v-3.75h-29.76V-10.631h22.42v-3.75h-22.42v-18.59h28.8v-3.75h-32.951Zm86.247,0L-158.967-8c7.58-1.356,12.048-6.941,12.048-14.281,0-8.3-6.064-14.441-15.957-14.441h-17.872V15.937h4.149V-7.679h12.845l17.712,23.616ZM-176.6-32.971h13.563c7.58,0,11.808,4.388,11.808,10.771s-4.229,10.771-11.808,10.771H-176.6Zm42.047,38.536c4.149,6.941,10.931,11.17,18.909,11.17,9.255,0,16.356-5.665,16.356-13.962,0-6.941-3.909-10.611-12.127-14.441l-5.9-2.872c-6.3-3.112-9.016-4.628-9.335-10.212a7.7,7.7,0,0,1,3.271-6.7,13.193,13.193,0,0,1,7.739-2.234c5.106,0,9.494,2.394,12.686,6.862l3.112-2.314a18.761,18.761,0,0,0-15.8-8.377c-8.377,0-15.319,4.947-15.319,13,.319,7.659,5.027,10.611,11.649,13.643L-113.33-8c7.021,3.511,9.494,5.186,9.734,10.851,0,6.143-4.947,9.973-11.968,9.973-6.941,0-12.127-3.75-15.877-9.574Zm46.674-15.957C-88.2,4.528-75.671,17.054-60.911,16.735c14.6.319,27.366-12.207,27.047-27.127.319-15-12.447-27.366-27.047-27.127A26.769,26.769,0,0,0-87.878-10.392Zm49.626-.08c.239,12.845-10.053,23.537-22.579,23.3a22.545,22.545,0,0,1-22.659-23.3c-.239-12.845,9.973-23.457,22.659-23.217C-48.305-33.929-38.013-23.317-38.252-10.472ZM16.48-36.721V7.4L-18.465-37.519h-1.6V15.937h4.149v-43.8l34.866,44.6h1.675V-36.721Zm59.2,52.658h4.388L57.57-37.519H55.894L33.315,15.937h4.308L42.809,3.411H70.495ZM56.692-30.1,68.9-.339H44.405ZM92.755,15.937h30.079v-3.75H96.9V-36.721H92.755Zm71.009,0h4.149V-32.971H187.22v-3.75H144.535v3.75h19.228Zm74.519,0L220.49-8c7.58-1.356,12.048-6.941,12.048-14.281,0-8.3-6.064-14.441-15.957-14.441H198.709V15.937h4.149V-7.679H215.7l17.712,23.616ZM202.858-32.971h13.563c7.58,0,11.808,4.388,11.808,10.771S224-11.429,216.421-11.429H202.858Zm84.253,48.908H291.5L269-37.519h-1.675L244.745,15.937h4.308l5.186-12.526h27.685ZM268.122-30.1,280.329-.339H255.835Zm36.063,46.036h4.149V-36.721h-4.149Zm58-52.658V7.4L327.242-37.519h-1.6V15.937H329.8v-43.8l34.866,44.6h1.675V-36.721ZM383.73,15.937h4.149V-36.721H383.73Zm58-52.658V7.4L406.788-37.519h-1.6V15.937h4.149v-43.8l34.866,44.6h1.675V-36.721Zm17.952,26.329c-.239,14.92,12.127,27.446,26.967,27.127,9.973,0,18.989-5.026,23.537-13.324v-13.4H486.653v3.83H506.04v8.7a22.051,22.051,0,0,1-19.148,10.372c-13.165,0-22.818-10.212-22.818-23.377,0-13,9.734-23.217,22.659-23.217a21.535,21.535,0,0,1,17.872,9.1l3.112-2.473a25.567,25.567,0,0,0-21.063-10.452A26.769,26.769,0,0,0,459.685-10.392Z" transform="translate(1455.188 307.594)" fill="#fff"/>
    <path id="Path_10" data-name="Path 10" d="M18.429,63.511c.032,0,.067,0,.1,0C18.232,63.387,17.412,63.572,18.429,63.511Zm121.643-5.654c-8.921,1.541-18.024,2.621-27.111,3.4-17.9,1.539-35.82,2.162-53.453,2.416-7.593.109-15.065,0-22.625.04q-2.136.012-4.27.02c-.425,0-.849,0-1.276,0h-.01l.143.021c-.051-.008-.106-.014-.16-.021a2.959,2.959,0,0,1-.646-.051c-1.084-.05-2.454.023-3.431.005-1.419-.025-2.833-.086-4.262-.088q-1.172-.033.736.043l-1.91-.076c-.274,0-.556.011-.83,0-.762-.017-1.653-.1-2.438-.068.105.044.145.126.011.272.239-.261-4.715-.159-5.489-.084-.983.1,12.424,5.768,55.5,7.405,3.245,22.591-49.984,92.014-50.122,93.867-.012.154,2.354,1.585,9.9-9.352,8.7-12.611,17.534-22.435,26.761-34.506,6.235-8.158,14.1-19.98,15.653-23.281,6.338-13.43,7.835-21.584,6.912-26.455,10.736.24,23.062.237,37.163-.123a143.84,143.84,0,0,0,15.638-1.715q3.316-.451,6.607-.977c1.076-.173,2.161-.343,3.226-.539a23.112,23.112,0,0,0,4.048-1.1C146.583,66.216,151.495,55.884,140.072,57.856ZM31.327,63.739c-.58-.083-.746-.075-.664-.051.231.011.448.027.646.051h.017ZM144.534,83.658c-.076.1-.153.2-.226.306C144.377,83.873,144.453,83.772,144.534,83.658ZM115.5,143.581c-3.156-1.581-10.55-13.412-15.744-14.766-6.278-1.636-11.888,3.018-16.373,6.766-.466.389-.924.786-1.383,1.182a83.6,83.6,0,0,1,5.841-7.941,43.329,43.329,0,0,1,9.43-8.5,13.811,13.811,0,0,1,5.166-2.281,5.967,5.967,0,0,1,3.557.419,2.121,2.121,0,0,0,.218.525,3.343,3.343,0,0,0,1.1,1.436,3.608,3.608,0,0,0,2.614.5,2.732,2.732,0,0,0,2.15-3.192,9.083,9.083,0,0,0-5.752-5.743c-3.333-1.072-6.768-.277-9.862,1.109a39.455,39.455,0,0,0-11.981,8.923,88.931,88.931,0,0,0-9.823,12.67,75.219,75.219,0,0,0-4.21,7.238c-.984,1.939-2.262,3.888-2.5,6.1A4.568,4.568,0,0,0,70,152.644a5.615,5.615,0,0,0,4.4.279c2.137-.672,3.6-2.241,5.184-3.726A152.765,152.765,0,0,1,91.31,139.076a15.113,15.113,0,0,1,5.321-2.871c.041-.009.482-.04.426-.046a4.169,4.169,0,0,1,.593.039c-.258-.02.826.357.576.228a6.653,6.653,0,0,1,1.882,1.636c2.961,3.245,7.808,8.212,13.105,11.055,12.806,6.873,26.261-3.041,32.618-9.559a20.928,20.928,0,0,0,3.694-5.318S129.587,150.637,115.5,143.581Zm-43.367,2.142.228-.055h0A1.2,1.2,0,0,1,72.136,145.723ZM211.35,125.852C211.761,126.281,211.622,126.107,211.35,125.852Zm18.121,10.13a.7.7,0,0,0-.221-.292.955.955,0,0,1,.215.287Zm8.027,4.456a1.583,1.583,0,0,0-.362-.088l.071.021C237.283,140.388,237.394,140.413,237.5,140.438Zm29.584-6.947c-1.894.678-3.757,1.4-5.607,2.181-1.979.841-3.974,1.654-5.994,2.392-.795.291-1.6.565-2.4.834-.128.043-.851.274-.875.286-.288.088-.576.176-.865.259a38.668,38.668,0,0,1-7.85,1.464c-.272.02-.546.028-.818.048l-.153,0c-.555-.006-1.108-.014-1.662-.048a22.687,22.687,0,0,1-3.078-.4c-.035-.007-.156-.036-.286-.067.12.041.13.058-.275-.061l-.016,0a.332.332,0,0,0-.1-.014c0-.006.012-.007.025-.008-.423-.125-.844-.254-1.261-.4a23.629,23.629,0,0,1-2.494-1.09l-.016-.008c-.121-.074-.247-.143-.367-.217q-.6-.362-1.167-.763a24.069,24.069,0,0,1-2.034-1.6c-.11-.1-.218-.194-.326-.292,0,.009.007.018.01.028,0-.01-.012-.022-.016-.033l-.118-.105c-.315-.28-.231-.289-.1-.182-.24-.242-.6-.507-.738-.657-.571-.6-1.12-1.22-1.653-1.855-1.09-1.3-2.11-2.652-3.109-4.02-3.629-4.964-7.492-11.087-13.858-12.707-4.14-1.054-8.292-.106-12.346.926a104.056,104.056,0,0,0-16.25,5.733,172.473,172.473,0,0,0-30.543,17.808c3.771-4.132,7.575-8.235,11.248-12.456a105.074,105.074,0,0,0,10.47-13.583,16.741,16.741,0,0,0,2.538-6.282,5.588,5.588,0,0,0-.754-4.03c-1.736-2.526-5.051-1.943-7.086-.167-1.777,1.55.257,4.07,2.218,3.718a24.069,24.069,0,0,1-2.765,4.458A152.912,152.912,0,0,1,155.758,125c-7.84,8.41-16.239,16.464-23.262,25.6-2.589,3.366-5.445,7.221-5.095,11.668.241,3.062,4.378,3.768,6.346,2.059,13.416-11.648,27.184-22.2,42.966-30.457,2.94-1.538,5.932-2.98,8.977-4.3q2-.867,4.037-1.658.935-.363,1.877-.708c.306-.112.614-.221.92-.332-1.062.388.225-.075.449-.151,2.332-.792,4.7-1.5,7.09-2.077q1.625-.394,3.267-.709c.48-.091.962-.181,1.445-.256a7.425,7.425,0,0,0,1.173-.113c.082,0,.165,0,.247,0a10.535,10.535,0,0,1,1.128.1c.077.011.155.026.232.041.278.083.558.16.832.261.212.078.418.168.624.258.13.082.327.158.421.214a13.909,13.909,0,0,1,1.653,1.176c.092.076.183.158.264.233l-.148-.155c.244.258.515.492.763.747.514.528,1,1.079,1.476,1.644,1,1.2,1.918,2.471,2.859,3.72,20.712,27.495,54.546.594,54.546.594S268.668,132.924,267.083,133.491Zm-61.4-9.931c.085,0,.169,0,.254,0C205.629,123.637,205.006,123.544,205.685,123.56Zm.288-.006a.526.526,0,0,0,.059-.023A.311.311,0,0,1,205.973,123.555Zm3.088.695c.082.036.163.072.246.107C209.755,124.545,209.318,124.391,209.061,124.249Zm131.673-19.242c-.272-3.019.1-4.907-6.133-3.586-2.86.606-11.635,6.3-22.658,13.978-.056,0-.112,0-.168,0a50.493,50.493,0,0,0-10.885,1.242,64.163,64.163,0,0,0-17.326,6.887c-11.741,6.592-22.532,15.3-32.146,24.677-2.678,2.612-5.281,5.308-7.771,8.1-1.161,1.3-2.267,2.661-3.492,3.9a5.344,5.344,0,0,0-1.07,6.762,3.329,3.329,0,0,0,2.892,1.7c8.408-.194,14.424-7.281,20.588-12.087q11.634-9.07,23.45-17.9,12.12-9.055,24.321-18.007c.39-.285.784-.565,1.175-.848,1.116-.059,2.224-.117,3.342-.229a7.706,7.706,0,0,1,4.593,1.054c2.093,1.143,4.1-2.483,2.015-3.691a12.649,12.649,0,0,0-3.812-1.517c1.373-.98,2.742-1.964,4.094-2.972,3.337-2.487,6.661-5.289,10.532-6.917.3-.126.6-.237.914-.338.068-.022.2-.06.34-.1.019.089.036.165.047.209.006.172.035.633.038.755.01.475,0,.95-.023,1.424a36.113,36.113,0,0,1-3.171,12.028c-1.616,3.878-3.607,7.584-5.494,11.333-2.124,4.219-4.27,8.426-6.5,12.592-4.5,8.415-9.3,16.657-14.527,24.641-5.373,8.2-15.066,22.489-39.7,51.886-19.76,24.5-20.639,24.877-39.01,46.238a529.11,529.11,0,0,1-40.443,40.987,226.867,226.867,0,0,1-21.1,17.732c-7.235,5.267-14.784,10.075-23.121,13.4a23.587,23.587,0,0,1-5.8,1.788,11.253,11.253,0,0,1-5.239-.932c-.02-.007-.206-.09-.343-.145a.929.929,0,0,1-.107-.094c-.293-.33-.589-.654-.861-1a7.035,7.035,0,0,1-1.1-1.9c-.057-.131-.361-1.036-.339-.9-.1-.38-.182-.764-.245-1.151a10.31,10.31,0,0,1-.131-2.367,47.229,47.229,0,0,1,1.79-13.239,81,81,0,0,1,4.954-12.46c7.153-14.525,17.736-27.278,29.844-37.96,7.476-3.662,14.728-7.867,22.16-11.64a301.808,301.808,0,0,0,32.025-18.25c3.13-2.1,8.956-5.976,7.124-10.54-1.6-4-7.511-2.747-10.667-1.7a63.849,63.849,0,0,0-8.146,3.732c-12.747,6.34-24.5,14.618-35.8,23.235a68.092,68.092,0,0,0-6.706,6.32c-6.5,3.127-13.073,6.109-19.774,8.819a270.888,270.888,0,0,1-47.016,14.456,251.641,251.641,0,0,1-25.243,3.856c-8.517.862-17.112,1.129-25.59-.258-7.764-1.271-16.351-3.375-22.209-8.949a24.073,24.073,0,0,1-5.8-8.6,6.615,6.615,0,0,1-.461-2.292,4.11,4.11,0,0,1,.009-.881c.015-.126.141-.473.169-.587.136-.2.3-.416.116-.228a2.929,2.929,0,0,1,.5-.431,10.062,10.062,0,0,1,2.122-1,3.508,3.508,0,0,0-2.851-6.411c-3.29,1.23-19.937,64.266,130.3,17.77q1.7-.526,3.369-1.124c-18.614,23.09-40.542,58.541-23.773,73.056,2.861,2.476,7.49,1.854,11.147.913,6.891-1.773,13.525-5.337,19.532-9.068a173.245,173.245,0,0,0,16.948-12c11.4-9.145,21.925-19.466,32.117-29.923,16-16.772,28.555-31.177,28.555-31.177s15.407-18.249,31.965-37.524c23.044-27.29,41.511-52.636,49.085-65.341,3.748-6.287,7.27-12.705,10.641-19.2,3.2-6.17,6.431-12.366,9.311-18.694C338.811,118.394,341.329,111.619,340.733,105.007Zm-92.423,55.46q.661-.785,1.332-1.561,2.8-3.225,5.766-6.306a155.434,155.434,0,0,1,14.8-13.475c8.713-6.993,18.195-13.832,28.97-17.2a46.661,46.661,0,0,1,5.394-1.341C283.615,135.463,258.05,154.511,248.311,160.468Zm-31.12,67.98c.012-.062.019-.107.024-.14C217.313,228.082,217.343,228.231,217.191,228.447Zm-29.933,18.437a67.164,67.164,0,0,1,11.86-6.394q-5.184,2.975-10.527,5.709l-1.333.686ZM333.389,104.431l-.029-.037c.01.012.02.023.028.031Z" transform="translate(1788.692 85)" fill="#fff"/>
  </g>
</svg>
